<svg width="40" height="40" viewBox="0 0 40 40" fill="none" xmlns="http://www.w3.org/2000/svg">
<path d="M12.6943 0.5H26.793L38.5 12.207V34.793C38.4998 37.3646 36.2642 39.4999 33.4404 39.5H12.5703C9.73516 39.5 7.50023 37.364 7.5 34.793V5.20703C7.50013 2.64972 9.84436 0.500142 12.6943 0.5Z" fill="white" stroke="#DBDBDB"/>
<path d="M27.0257 8.16V0L39 12H31.0171C27.4248 12 26.8593 9.44 27.0257 8.16Z" fill="#D4D4D8"/>
<rect x="1" y="19" width="29" height="15" rx="3" fill="#155EEF"/>
<path d="M8.21147 30H5.89116V23.4545H8.23065C8.88903 23.4545 9.45579 23.5856 9.93093 23.8477C10.4061 24.1076 10.7715 24.4815 11.0272 24.9695C11.285 25.4574 11.4139 26.0412 11.4139 26.7209C11.4139 27.4027 11.285 27.9886 11.0272 28.4787C10.7715 28.9687 10.4039 29.3448 9.92454 29.6069C9.44727 29.869 8.87624 30 8.21147 30ZM7.27504 28.8143H8.15394C8.56303 28.8143 8.90714 28.7418 9.18626 28.5969C9.46751 28.4499 9.67844 28.223 9.81907 27.9162C9.96183 27.6072 10.0332 27.2088 10.0332 26.7209C10.0332 26.2372 9.96183 25.842 9.81907 25.5352C9.67844 25.2283 9.46857 25.0025 9.18945 24.8576C8.91033 24.7127 8.56623 24.6403 8.15714 24.6403H7.27504V28.8143ZM18.4539 26.7273C18.4539 27.4411 18.3186 28.0483 18.048 28.549C17.7796 29.0497 17.4131 29.4322 16.9486 29.6964C16.4862 29.9585 15.9664 30.0895 15.3889 30.0895C14.8073 30.0895 14.2852 29.9574 13.8229 29.6932C13.3605 29.429 12.9951 29.0465 12.7267 28.5458C12.4582 28.0451 12.324 27.4389 12.324 26.7273C12.324 26.0135 12.4582 25.4062 12.7267 24.9055C12.9951 24.4048 13.3605 24.0234 13.8229 23.7614C14.2852 23.4972 14.8073 23.3651 15.3889 23.3651C15.9664 23.3651 16.4862 23.4972 16.9486 23.7614C17.4131 24.0234 17.7796 24.4048 18.048 24.9055C18.3186 25.4062 18.4539 26.0135 18.4539 26.7273ZM17.0509 26.7273C17.0509 26.2649 16.9816 25.875 16.8431 25.5575C16.7068 25.2401 16.5139 24.9993 16.2646 24.8352C16.0154 24.6712 15.7235 24.5891 15.3889 24.5891C15.0544 24.5891 14.7625 24.6712 14.5132 24.8352C14.2639 24.9993 14.07 25.2401 13.9316 25.5575C13.7952 25.875 13.727 26.2649 13.727 26.7273C13.727 27.1896 13.7952 27.5795 13.9316 27.897C14.07 28.2145 14.2639 28.4553 14.5132 28.6193C14.7625 28.7834 15.0544 28.8654 15.3889 28.8654C15.7235 28.8654 16.0154 28.7834 16.2646 28.6193C16.5139 28.4553 16.7068 28.2145 16.8431 27.897C16.9816 27.5795 17.0509 27.1896 17.0509 26.7273ZM25.2543 25.7461H23.8544C23.8288 25.565 23.7766 25.4041 23.6978 25.2635C23.619 25.1207 23.5178 24.9993 23.3942 24.8991C23.2706 24.799 23.1278 24.7223 22.9659 24.669C22.8061 24.6158 22.6325 24.5891 22.445 24.5891C22.1062 24.5891 21.8111 24.6733 21.5597 24.8416C21.3082 25.0078 21.1133 25.2507 20.9748 25.5703C20.8363 25.8878 20.767 26.2734 20.767 26.7273C20.767 27.1939 20.8363 27.5859 20.9748 27.9034C21.1154 28.2209 21.3114 28.4606 21.5629 28.6225C21.8143 28.7844 22.1051 28.8654 22.4354 28.8654C22.6207 28.8654 22.7923 28.8409 22.9499 28.7919C23.1097 28.7429 23.2514 28.6715 23.375 28.5778C23.4986 28.4819 23.6009 28.3658 23.6818 28.2294C23.7649 28.093 23.8224 27.9375 23.8544 27.7628L25.2543 27.7692C25.218 28.0696 25.1275 28.3594 24.9826 28.6385C24.8398 28.9155 24.647 29.1637 24.4041 29.3832C24.1634 29.6005 23.8757 29.7731 23.5412 29.9009C23.2088 30.0266 22.8327 30.0895 22.413 30.0895C21.8292 30.0895 21.3072 29.9574 20.8469 29.6932C20.3888 29.429 20.0266 29.0465 19.7603 28.5458C19.4961 28.0451 19.364 27.4389 19.364 26.7273C19.364 26.0135 19.4982 25.4062 19.7667 24.9055C20.0352 24.4048 20.3995 24.0234 20.8597 23.7614C21.32 23.4972 21.8377 23.3651 22.413 23.3651C22.7923 23.3651 23.1438 23.4183 23.4677 23.5249C23.7937 23.6314 24.0824 23.7869 24.3338 23.9915C24.5852 24.1939 24.7898 24.4421 24.9474 24.7362C25.1072 25.0302 25.2095 25.3668 25.2543 25.7461Z" fill="white"/>
</svg>
