<svg width="40" height="40" viewBox="0 0 40 40" fill="none" xmlns="http://www.w3.org/2000/svg">
<path d="M12.6943 0.5H26.793L38.5 12.207V34.793C38.4998 37.3646 36.2642 39.4999 33.4404 39.5H12.5703C9.73516 39.5 7.50023 37.364 7.5 34.793V5.20703C7.50013 2.64972 9.84436 0.500142 12.6943 0.5Z" fill="white" stroke="#DBDBDB"/>
<path d="M27.0257 8.16V0L39 12H31.0171C27.4248 12 26.8593 9.44 27.0257 8.16Z" fill="#D4D4D8"/>
<rect x="1" y="19" width="35" height="15" rx="3" fill="#155EEF"/>
<path d="M8.06499 30H5.74467V23.4545H8.08416C8.74254 23.4545 9.3093 23.5856 9.78445 23.8477C10.2596 24.1076 10.625 24.4815 10.8807 24.9695C11.1385 25.4574 11.2674 26.0412 11.2674 26.7209C11.2674 27.4027 11.1385 27.9886 10.8807 28.4787C10.625 28.9687 10.2575 29.3448 9.77805 29.6069C9.30078 29.869 8.72976 30 8.06499 30ZM7.12855 28.8143H8.00746C8.41655 28.8143 8.76065 28.7418 9.03977 28.5969C9.32102 28.4499 9.53196 28.223 9.67259 27.9162C9.81534 27.6072 9.88672 27.2088 9.88672 26.7209C9.88672 26.2372 9.81534 25.842 9.67259 25.5352C9.53196 25.2283 9.32209 25.0025 9.04297 24.8576C8.76385 24.7127 8.41974 24.6403 8.01065 24.6403H7.12855V28.8143ZM18.3074 26.7273C18.3074 27.4411 18.1721 28.0483 17.9015 28.549C17.6331 29.0497 17.2666 29.4322 16.8021 29.6964C16.3398 29.9585 15.8199 30.0895 15.2425 30.0895C14.6608 30.0895 14.1388 29.9574 13.6764 29.6932C13.214 29.429 12.8486 29.0465 12.5802 28.5458C12.3117 28.0451 12.1775 27.4389 12.1775 26.7273C12.1775 26.0135 12.3117 25.4062 12.5802 24.9055C12.8486 24.4048 13.214 24.0234 13.6764 23.7614C14.1388 23.4972 14.6608 23.3651 15.2425 23.3651C15.8199 23.3651 16.3398 23.4972 16.8021 23.7614C17.2666 24.0234 17.6331 24.4048 17.9015 24.9055C18.1721 25.4062 18.3074 26.0135 18.3074 26.7273ZM16.9044 26.7273C16.9044 26.2649 16.8351 25.875 16.6966 25.5575C16.5603 25.2401 16.3675 24.9993 16.1182 24.8352C15.8689 24.6712 15.577 24.5891 15.2425 24.5891C14.9079 24.5891 14.616 24.6712 14.3667 24.8352C14.1175 24.9993 13.9236 25.2401 13.7851 25.5575C13.6487 25.875 13.5805 26.2649 13.5805 26.7273C13.5805 27.1896 13.6487 27.5795 13.7851 27.897C13.9236 28.2145 14.1175 28.4553 14.3667 28.6193C14.616 28.7834 14.9079 28.8654 15.2425 28.8654C15.577 28.8654 15.8689 28.7834 16.1182 28.6193C16.3675 28.4553 16.5603 28.2145 16.6966 27.897C16.8351 27.5795 16.9044 27.1896 16.9044 26.7273ZM25.1078 25.7461H23.7079C23.6824 25.565 23.6301 25.4041 23.5513 25.2635C23.4725 25.1207 23.3713 24.9993 23.2477 24.8991C23.1241 24.799 22.9814 24.7223 22.8194 24.669C22.6596 24.6158 22.486 24.5891 22.2985 24.5891C21.9597 24.5891 21.6646 24.6733 21.4132 24.8416C21.1618 25.0078 20.9668 25.2507 20.8283 25.5703C20.6898 25.8878 20.6206 26.2734 20.6206 26.7273C20.6206 27.1939 20.6898 27.5859 20.8283 27.9034C20.9689 28.2209 21.165 28.4606 21.4164 28.6225C21.6678 28.7844 21.9586 28.8654 22.2889 28.8654C22.4743 28.8654 22.6458 28.8409 22.8034 28.7919C22.9632 28.7429 23.1049 28.6715 23.2285 28.5778C23.3521 28.4819 23.4544 28.3658 23.5353 28.2294C23.6184 28.093 23.676 27.9375 23.7079 27.7628L25.1078 27.7692C25.0716 28.0696 24.981 28.3594 24.8361 28.6385C24.6934 28.9155 24.5005 29.1637 24.2576 29.3832C24.0169 29.6005 23.7292 29.7731 23.3947 29.9009C23.0623 30.0266 22.6863 30.0895 22.2665 30.0895C21.6827 30.0895 21.1607 29.9574 20.7005 29.6932C20.2424 29.429 19.8801 29.0465 19.6138 28.5458C19.3496 28.0451 19.2175 27.4389 19.2175 26.7273C19.2175 26.0135 19.3517 25.4062 19.6202 24.9055C19.8887 24.4048 20.253 24.0234 20.7132 23.7614C21.1735 23.4972 21.6912 23.3651 22.2665 23.3651C22.6458 23.3651 22.9973 23.4183 23.3212 23.5249C23.6472 23.6314 23.9359 23.7869 24.1873 23.9915C24.4387 24.1939 24.6433 24.4421 24.801 24.7362C24.9608 25.0302 25.063 25.3668 25.1078 25.7461ZM27.2571 23.4545L28.5771 25.6854H28.6282L29.9545 23.4545H31.5174L29.5199 26.7273L31.5621 30H29.9705L28.6282 27.766H28.5771L27.2347 30H25.6495L27.6982 26.7273L25.6879 23.4545H27.2571Z" fill="white"/>
</svg>
