<svg width="40" height="40" viewBox="0 0 40 40" fill="none" xmlns="http://www.w3.org/2000/svg">
<path d="M12.6943 0.5H26.793L38.5 12.207V34.793C38.4998 37.3646 36.2642 39.4999 33.4404 39.5H12.5703C9.73516 39.5 7.50023 37.364 7.5 34.793V5.20703C7.50013 2.64972 9.84436 0.500142 12.6943 0.5Z" fill="white" stroke="#DBDBDB"/>
<path d="M27.0257 8.16V0L39 12H31.0171C27.4248 12 26.8593 9.44 27.0257 8.16Z" fill="#D4D4D8"/>
<rect x="1" y="19" width="26" height="15" rx="3" fill="#D92D20"/>
<path d="M5.74907 30V23.4545H8.33145C8.8279 23.4545 9.25084 23.5494 9.60028 23.739C9.94971 23.9265 10.216 24.1875 10.3993 24.522C10.5847 24.8544 10.6773 25.2379 10.6773 25.6726C10.6773 26.1072 10.5836 26.4908 10.3961 26.8232C10.2086 27.1555 9.93692 27.4144 9.5811 27.5998C9.22741 27.7852 8.79914 27.8778 8.2963 27.8778H6.65035V26.7688H8.07258C8.33891 26.7688 8.55837 26.723 8.73096 26.6314C8.90567 26.5376 9.03564 26.4087 9.12087 26.2447C9.20823 26.0785 9.25191 25.8878 9.25191 25.6726C9.25191 25.4553 9.20823 25.2656 9.12087 25.1037C9.03564 24.9396 8.90567 24.8129 8.73096 24.7234C8.55624 24.6317 8.33465 24.5859 8.06618 24.5859H7.13295V30H5.74907ZM13.8965 30H11.5762V23.4545H13.9157C14.5741 23.4545 15.1408 23.5856 15.616 23.8477C16.0911 24.1076 16.4565 24.4815 16.7122 24.9695C16.97 25.4574 17.0989 26.0412 17.0989 26.7209C17.0989 27.4027 16.97 27.9886 16.7122 28.4787C16.4565 28.9687 16.089 29.3448 15.6096 29.6069C15.1323 29.869 14.5613 30 13.8965 30ZM12.9601 28.8143H13.839C14.2481 28.8143 14.5922 28.7418 14.8713 28.5969C15.1526 28.4499 15.3635 28.223 15.5041 27.9162C15.6469 27.6072 15.7183 27.2088 15.7183 26.7209C15.7183 26.2372 15.6469 25.842 15.5041 25.5352C15.3635 25.2283 15.1536 25.0025 14.8745 24.8576C14.5954 24.7127 14.2513 24.6403 13.8422 24.6403H12.9601V28.8143ZM18.1241 30V23.4545H22.4579V24.5955H19.5079V26.1552H22.1702V27.2962H19.5079V30H18.1241Z" fill="white"/>
</svg>
