<svg width="40" height="40" viewBox="0 0 40 40" fill="none" xmlns="http://www.w3.org/2000/svg">
<path d="M12.6943 0.5H26.793L38.5 12.207V34.793C38.4998 37.3646 36.2642 39.4999 33.4404 39.5H12.5703C9.73516 39.5 7.50023 37.364 7.5 34.793V5.20703C7.50013 2.64972 9.84436 0.500142 12.6943 0.5Z" fill="white" stroke="#DBDBDB"/>
<path d="M27.0257 8.16V0L39 12H31.0171C27.4248 12 26.8593 9.44 27.0257 8.16Z" fill="#D4D4D8"/>
<rect x="1" y="19" width="26" height="15" rx="3" fill="#E62E05"/>
<path d="M5.73588 30V23.4545H8.31827C8.81472 23.4545 9.23766 23.5494 9.58709 23.739C9.93652 23.9265 10.2029 24.1875 10.3861 24.522C10.5715 24.8544 10.6642 25.2379 10.6642 25.6726C10.6642 26.1072 10.5704 26.4908 10.3829 26.8232C10.1954 27.1555 9.92374 27.4144 9.56792 27.5998C9.21422 27.7852 8.78596 27.8778 8.28311 27.8778H6.63716V26.7688H8.05939C8.32573 26.7688 8.54519 26.723 8.71777 26.6314C8.89249 26.5376 9.02246 26.4087 9.10769 26.2447C9.19505 26.0785 9.23873 25.8878 9.23873 25.6726C9.23873 25.4553 9.19505 25.2656 9.10769 25.1037C9.02246 24.9396 8.89249 24.8129 8.71777 24.7234C8.54306 24.6317 8.32147 24.5859 8.053 24.5859H7.11976V30H5.73588ZM11.563 30V23.4545H14.1454C14.6419 23.4545 15.0648 23.5494 15.4142 23.739C15.7637 23.9265 16.03 24.1875 16.2132 24.522C16.3986 24.8544 16.4913 25.2379 16.4913 25.6726C16.4913 26.1072 16.3976 26.4908 16.2101 26.8232C16.0226 27.1555 15.7509 27.4144 15.3951 27.5998C15.0414 27.7852 14.6131 27.8778 14.1103 27.8778H12.4643V26.7688H13.8865C14.1529 26.7688 14.3723 26.723 14.5449 26.6314C14.7196 26.5376 14.8496 26.4087 14.9348 26.2447C15.0222 26.0785 15.0659 25.8878 15.0659 25.6726C15.0659 25.4553 15.0222 25.2656 14.9348 25.1037C14.8496 24.9396 14.7196 24.8129 14.5449 24.7234C14.3702 24.6317 14.1486 24.5859 13.8801 24.5859H12.9469V30H11.563ZM17.1409 24.5955V23.4545H22.5166V24.5955H20.5127V30H19.1448V24.5955H17.1409Z" fill="white"/>
</svg>
