<svg width="40" height="40" viewBox="0 0 40 40" fill="none" xmlns="http://www.w3.org/2000/svg">
<path d="M12.6943 0.5H26.793L38.5 12.207V34.793C38.4998 37.3646 36.2642 39.4999 33.4404 39.5H12.5703C9.73516 39.5 7.50023 37.364 7.5 34.793V5.20703C7.50013 2.64972 9.84436 0.500142 12.6943 0.5Z" fill="white" stroke="#DBDBDB"/>
<path d="M27.0257 8.16V0L39 12H31.0171C27.4248 12 26.8593 9.44 27.0257 8.16Z" fill="#D4D4D8"/>
<rect x="1" y="19" width="26" height="15" rx="3" fill="#079455"/>
<path d="M7.14773 23.4545L8.46768 25.6854H8.51882L9.84517 23.4545H11.408L9.41051 26.7273L11.4528 30H9.86115L8.51882 27.766H8.46768L7.12536 30H5.54013L7.58878 26.7273L5.57848 23.4545H7.14773ZM12.2837 30V23.4545H13.6676V28.859H16.4737V30H12.2837ZM20.941 25.337C20.9154 25.0792 20.8057 24.8789 20.6118 24.7362C20.4179 24.5934 20.1547 24.522 19.8224 24.522C19.5965 24.522 19.4058 24.554 19.2503 24.6179C19.0947 24.6797 18.9754 24.766 18.8923 24.8768C18.8113 24.9876 18.7709 25.1133 18.7709 25.2539C18.7666 25.3711 18.7911 25.4734 18.8444 25.5607C18.8998 25.6481 18.9754 25.7237 19.0713 25.7876C19.1672 25.8494 19.278 25.9038 19.4037 25.9506C19.5294 25.9954 19.6636 26.0337 19.8064 26.0657L20.3944 26.2063C20.68 26.2702 20.942 26.3555 21.1807 26.462C21.4193 26.5685 21.626 26.6996 21.8007 26.8551C21.9754 27.0107 22.1107 27.1939 22.2066 27.4048C22.3046 27.6158 22.3547 27.8576 22.3568 28.1303C22.3547 28.5309 22.2524 28.8782 22.05 29.1722C21.8497 29.4641 21.5599 29.6911 21.1807 29.853C20.8035 30.0128 20.3486 30.0927 19.816 30.0927C19.2876 30.0927 18.8273 30.0117 18.4353 29.8498C18.0454 29.6879 17.7407 29.4482 17.5212 29.1307C17.3039 28.8111 17.1899 28.4158 17.1792 27.945H18.5184C18.5333 28.1644 18.5961 28.3477 18.7069 28.4947C18.8199 28.6396 18.9701 28.7493 19.1576 28.8239C19.3472 28.8963 19.5613 28.9325 19.8 28.9325C20.0344 28.9325 20.2378 28.8984 20.4104 28.8303C20.5851 28.7621 20.7204 28.6673 20.8163 28.5458C20.9122 28.4244 20.9601 28.2848 20.9601 28.1271C20.9601 27.9801 20.9165 27.8565 20.8291 27.7564C20.7439 27.6562 20.6182 27.571 20.452 27.5007C20.2879 27.4304 20.0866 27.3665 19.8479 27.3089L19.1352 27.13C18.5834 26.9957 18.1476 26.7859 17.828 26.5004C17.5084 26.2148 17.3497 25.8303 17.3518 25.3466C17.3497 24.9503 17.4552 24.604 17.6682 24.3079C17.8834 24.0117 18.1785 23.7805 18.5535 23.6143C18.9285 23.4482 19.3547 23.3651 19.8319 23.3651C20.3177 23.3651 20.7417 23.4482 21.104 23.6143C21.4683 23.7805 21.7517 24.0117 21.9541 24.3079C22.1565 24.604 22.2609 24.9471 22.2673 25.337H20.941Z" fill="white"/>
</svg>
