<svg width="40" height="40" viewBox="0 0 40 40" fill="none" xmlns="http://www.w3.org/2000/svg">
<path d="M12.6943 0.5H26.793L38.5 12.207V34.793C38.4998 37.3646 36.2642 39.4999 33.4404 39.5H12.5703C9.73516 39.5 7.50023 37.364 7.5 34.793V5.20703C7.50013 2.64972 9.84436 0.500142 12.6943 0.5Z" fill="white" stroke="#DBDBDB"/>
<path d="M27.0257 8.16V0L39 12H31.0171C27.4248 12 26.8593 9.44 27.0257 8.16Z" fill="#D4D4D8"/>
<rect x="1" y="19" width="32" height="15" rx="3" fill="#079455"/>
<path d="M6.93093 23.4545L8.25089 25.6854H8.30202L9.62837 23.4545H11.1912L9.19371 26.7273L11.236 30H9.64435L8.30202 27.766H8.25089L6.90856 30H5.32333L7.37198 26.7273L5.36168 23.4545H6.93093ZM12.0669 30V23.4545H13.4508V28.859H16.2569V30H12.0669ZM20.7242 25.337C20.6986 25.0792 20.5889 24.8789 20.395 24.7362C20.2011 24.5934 19.9379 24.522 19.6056 24.522C19.3797 24.522 19.189 24.554 19.0335 24.6179C18.8779 24.6797 18.7586 24.766 18.6755 24.8768C18.5945 24.9876 18.5541 25.1133 18.5541 25.2539C18.5498 25.3711 18.5743 25.4734 18.6276 25.5607C18.683 25.6481 18.7586 25.7237 18.8545 25.7876C18.9504 25.8494 19.0612 25.9038 19.1869 25.9506C19.3126 25.9954 19.4468 26.0337 19.5896 26.0657L20.1776 26.2063C20.4632 26.2702 20.7252 26.3555 20.9639 26.462C21.2025 26.5685 21.4092 26.6996 21.5839 26.8551C21.7586 27.0107 21.8939 27.1939 21.9898 27.4048C22.0878 27.6158 22.1379 27.8576 22.14 28.1303C22.1379 28.5309 22.0356 28.8782 21.8332 29.1722C21.6329 29.4641 21.3431 29.6911 20.9639 29.853C20.5867 30.0128 20.1318 30.0927 19.5992 30.0927C19.0708 30.0927 18.6105 30.0117 18.2185 29.8498C17.8286 29.6879 17.5239 29.4482 17.3044 29.1307C17.0871 28.8111 16.9731 28.4158 16.9624 27.945H18.3016C18.3165 28.1644 18.3794 28.3477 18.4901 28.4947C18.6031 28.6396 18.7533 28.7493 18.9408 28.8239C19.1304 28.8963 19.3445 28.9325 19.5832 28.9325C19.8176 28.9325 20.021 28.8984 20.1936 28.8303C20.3683 28.7621 20.5036 28.6673 20.5995 28.5458C20.6954 28.4244 20.7433 28.2848 20.7433 28.1271C20.7433 27.9801 20.6997 27.8565 20.6123 27.7564C20.5271 27.6562 20.4014 27.571 20.2352 27.5007C20.0711 27.4304 19.8698 27.3665 19.6311 27.3089L18.9184 27.13C18.3666 26.9957 17.9308 26.7859 17.6112 26.5004C17.2916 26.2148 17.1329 25.8303 17.135 25.3466C17.1329 24.9503 17.2384 24.604 17.4514 24.3079C17.6666 24.0117 17.9617 23.7805 18.3367 23.6143C18.7117 23.4482 19.1379 23.3651 19.6151 23.3651C20.1009 23.3651 20.5249 23.4482 20.8872 23.6143C21.2515 23.7805 21.5349 24.0117 21.7373 24.3079C21.9397 24.604 22.0441 24.9471 22.0505 25.337H20.7242ZM24.3684 23.4545L25.6884 25.6854H25.7395L27.0659 23.4545H28.6287L26.6312 26.7273L28.6735 30H27.0819L25.7395 27.766H25.6884L24.3461 30H22.7608L24.8095 26.7273L22.7992 23.4545H24.3684Z" fill="white"/>
</svg>
