<svg width="16" height="16" viewBox="0 0 16 16" fill="none" xmlns="http://www.w3.org/2000/svg">
<path d="M0 4C0 1.79086 1.79086 0 4 0H12C14.2091 0 16 1.79086 16 4V12C16 14.2091 14.2091 16 12 16H4C1.79086 16 0 14.2091 0 12V4Z" fill="#FDC700"/>
<g clip-path="url(#clip0_250_1439)">
<path d="M9 6V10C9 10.1978 9.05865 10.3911 9.16853 10.5556C9.27841 10.72 9.43459 10.8482 9.61732 10.9239C9.80004 10.9996 10.0011 11.0194 10.1951 10.9808C10.3891 10.9422 10.5673 10.847 10.7071 10.7071C10.847 10.5673 10.9422 10.3891 10.9808 10.1951C11.0194 10.0011 10.9996 9.80004 10.9239 9.61732C10.8482 9.43459 10.72 9.27841 10.5556 9.16853C10.3911 9.05865 10.1978 9 10 9H6C5.80222 9 5.60888 9.05865 5.44443 9.16853C5.27998 9.27841 5.15181 9.43459 5.07612 9.61732C5.00043 9.80004 4.98063 10.0011 5.01922 10.1951C5.0578 10.3891 5.15304 10.5673 5.29289 10.7071C5.43275 10.847 5.61093 10.9422 5.80491 10.9808C5.99889 11.0194 6.19996 10.9996 6.38268 10.9239C6.56541 10.8482 6.72159 10.72 6.83147 10.5556C6.94135 10.3911 7 10.1978 7 10V6C7 5.80222 6.94135 5.60888 6.83147 5.44443C6.72159 5.27998 6.56541 5.15181 6.38268 5.07612C6.19996 5.00043 5.99889 4.98063 5.80491 5.01922C5.61093 5.0578 5.43275 5.15304 5.29289 5.29289C5.15304 5.43275 5.0578 5.61093 5.01922 5.80491C4.98063 5.99889 5.00043 6.19996 5.07612 6.38268C5.15181 6.56541 5.27998 6.72159 5.44443 6.83147C5.60888 6.94135 5.80222 7 6 7H10C10.1978 7 10.3911 6.94135 10.5556 6.83147C10.72 6.72159 10.8482 6.56541 10.9239 6.38268C10.9996 6.19996 11.0194 5.99889 10.9808 5.80491C10.9422 5.61093 10.847 5.43275 10.7071 5.29289C10.5673 5.15304 10.3891 5.0578 10.1951 5.01922C10.0011 4.98063 9.80004 5.00043 9.61732 5.07612C9.43459 5.15181 9.27841 5.27998 9.16853 5.44443C9.05865 5.60888 9 5.80222 9 6Z" stroke="#733E0A" stroke-width="0.75" stroke-linecap="round" stroke-linejoin="round"/>
</g>
<defs>
<clipPath id="clip0_250_1439">
<rect width="8" height="8" fill="white" transform="translate(4 4)"/>
</clipPath>
</defs>
</svg>
