<svg width="32" height="32" viewBox="0 0 32 32" fill="none" xmlns="http://www.w3.org/2000/svg">
<path d="M0 8C0 3.58172 3.58172 0 8 0H24C28.4183 0 32 3.58172 32 8V24C32 28.4183 28.4183 32 24 32H8C3.58172 32 0 28.4183 0 24V8Z" fill="#FDC700"/>
<path d="M18 12V20C18 20.3956 18.1173 20.7822 18.3371 21.1111C18.5568 21.44 18.8692 21.6964 19.2346 21.8478C19.6001 21.9991 20.0022 22.0387 20.3902 21.9616C20.7781 21.8844 21.1345 21.6939 21.4142 21.4142C21.6939 21.1345 21.8844 20.7781 21.9616 20.3902C22.0387 20.0022 21.9991 19.6001 21.8478 19.2346C21.6964 18.8692 21.44 18.5568 21.1111 18.3371C20.7822 18.1173 20.3956 18 20 18H12C11.6044 18 11.2178 18.1173 10.8889 18.3371C10.56 18.5568 10.3036 18.8692 10.1522 19.2346C10.0009 19.6001 9.96126 20.0022 10.0384 20.3902C10.1156 20.7781 10.3061 21.1345 10.5858 21.4142C10.8655 21.6939 11.2219 21.8844 11.6098 21.9616C11.9978 22.0387 12.3999 21.9991 12.7654 21.8478C13.1308 21.6964 13.4432 21.44 13.6629 21.1111C13.8827 20.7822 14 20.3956 14 20V12C14 11.6044 13.8827 11.2178 13.6629 10.8889C13.4432 10.56 13.1308 10.3036 12.7654 10.1522C12.3999 10.0009 11.9978 9.96126 11.6098 10.0384C11.2219 10.1156 10.8655 10.3061 10.5858 10.5858C10.3061 10.8655 10.1156 11.2219 10.0384 11.6098C9.96126 11.9978 10.0009 12.3999 10.1522 12.7654C10.3036 13.1308 10.56 13.4432 10.8889 13.6629C11.2178 13.8827 11.6044 14 12 14H20C20.3956 14 20.7822 13.8827 21.1111 13.6629C21.44 13.4432 21.6964 13.1308 21.8478 12.7654C21.9991 12.3999 22.0387 11.9978 21.9616 11.6098C21.8844 11.2219 21.6939 10.8655 21.4142 10.5858C21.1345 10.3061 20.7781 10.1156 20.3902 10.0384C20.0022 9.96126 19.6001 10.0009 19.2346 10.1522C18.8692 10.3036 18.5568 10.56 18.3371 10.8889C18.1173 11.2178 18 11.6044 18 12Z" stroke="#733E0A" stroke-width="1.5" stroke-linecap="round" stroke-linejoin="round"/>
</svg>
